<svg width="110" height="161" viewBox="0 0 110 161" fill="none" xmlns="http://www.w3.org/2000/svg">
<path d="M14.681 12.2253L8.74873 14.39C8.70233 14.4058 8.66209 14.4353 8.63361 14.4744C8.60512 14.5136 8.58982 14.5605 8.58982 14.6086C8.58982 14.6567 8.60512 14.7036 8.63361 14.7427C8.66209 14.7819 8.70233 14.8114 8.74873 14.8271L10.7868 15.4447L8.6401 17.4938C8.59612 17.5371 8.57143 17.5957 8.57143 17.6568C8.57143 17.7179 8.59612 17.7765 8.6401 17.8199L9.19507 18.3633C9.23932 18.4064 9.29917 18.4306 9.36156 18.4306C9.42395 18.4306 9.4838 18.4064 9.52805 18.3633L11.6818 16.305L12.3171 18.3287C12.3318 18.3746 12.3609 18.4148 12.4001 18.4438C12.4394 18.4727 12.4869 18.489 12.536 18.4902C12.5851 18.4915 12.6335 18.4777 12.6742 18.4509C12.715 18.424 12.7461 18.3853 12.7634 18.3402L14.9856 12.5213C15.0011 12.4798 15.0042 12.4347 14.9943 12.3916C14.9845 12.3484 14.9622 12.3089 14.9302 12.2777C14.8981 12.2465 14.8576 12.225 14.8134 12.2157C14.7692 12.2065 14.7233 12.2098 14.681 12.2253Z" fill="#E8F1F2"/>
<path d="M101.251 14.39L95.319 12.2253C95.2767 12.2098 95.2308 12.2065 95.1866 12.2157C95.1424 12.225 95.1019 12.2465 95.0698 12.2777C95.0378 12.3089 95.0155 12.3484 95.0057 12.3916C94.9958 12.4347 94.9989 12.4798 95.0144 12.5213L97.2366 18.3402C97.2539 18.3853 97.285 18.424 97.3258 18.4509C97.3665 18.4777 97.4149 18.4915 97.464 18.4902C97.5131 18.489 97.5606 18.4727 97.5999 18.4438C97.6391 18.4148 97.6682 18.3746 97.6829 18.3287L98.3182 16.305L100.472 18.3633C100.516 18.4064 100.576 18.4306 100.638 18.4306C100.701 18.4306 100.761 18.4064 100.805 18.3633L101.36 17.8199C101.404 17.7765 101.429 17.7179 101.429 17.6568C101.429 17.5957 101.404 17.5371 101.36 17.4938L99.2132 15.4447L101.251 14.8271C101.298 14.8114 101.338 14.7819 101.366 14.7427C101.395 14.7036 101.41 14.6567 101.41 14.6086C101.41 14.5605 101.395 14.5136 101.366 14.4744C101.338 14.4353 101.298 14.4058 101.251 14.39Z" fill="#E8F1F2"/>
<path d="M101.251 146.61L95.319 148.775C95.2767 148.79 95.2308 148.794 95.1866 148.784C95.1424 148.775 95.1019 148.753 95.0698 148.722C95.0378 148.691 95.0155 148.652 95.0057 148.608C94.9958 148.565 94.9989 148.52 95.0144 148.479L97.2366 142.66C97.2539 142.615 97.285 142.576 97.3258 142.549C97.3665 142.522 97.4149 142.508 97.464 142.51C97.5131 142.511 97.5606 142.527 97.5999 142.556C97.6391 142.585 97.6682 142.625 97.6829 142.671L98.3182 144.695L100.472 142.637C100.516 142.594 100.576 142.569 100.638 142.569C100.701 142.569 100.761 142.594 100.805 142.637L101.36 143.18C101.404 143.223 101.429 143.282 101.429 143.343C101.429 143.404 101.404 143.463 101.36 143.506L99.2132 145.555L101.251 146.173C101.298 146.189 101.338 146.218 101.366 146.257C101.395 146.296 101.41 146.343 101.41 146.391C101.41 146.439 101.395 146.486 101.366 146.526C101.338 146.565 101.298 146.594 101.251 146.61Z" fill="#E8F1F2"/>
<path d="M14.681 148.775L8.74873 146.61C8.70233 146.594 8.66209 146.565 8.63361 146.526C8.60512 146.486 8.58982 146.439 8.58982 146.391C8.58982 146.343 8.60512 146.296 8.63361 146.257C8.66209 146.218 8.70233 146.189 8.74873 146.173L10.7868 145.555L8.6401 143.506C8.59612 143.463 8.57143 143.404 8.57143 143.343C8.57143 143.282 8.59612 143.223 8.6401 143.18L9.19507 142.637C9.23932 142.594 9.29917 142.569 9.36156 142.569C9.42395 142.569 9.4838 142.594 9.52805 142.637L11.6818 144.695L12.3171 142.671C12.3318 142.625 12.3609 142.585 12.4001 142.556C12.4394 142.527 12.4869 142.511 12.536 142.51C12.5851 142.508 12.6335 142.522 12.6742 142.549C12.715 142.576 12.7461 142.615 12.7634 142.66L14.9856 148.479C15.0011 148.52 15.0042 148.565 14.9943 148.608C14.9845 148.652 14.9622 148.691 14.9302 148.722C14.8981 148.753 14.8576 148.775 14.8134 148.784C14.7692 148.794 14.7233 148.79 14.681 148.775Z" fill="#E8F1F2"/>
<path fill-rule="evenodd" clip-rule="evenodd" d="M20 2.09324C20 0.937177 19.0406 0 17.8571 0H2.14286C0.959389 0 0 0.937177 0 2.09324V24.457C0 25.613 0.959389 26.5502 2.14286 26.5502H2.82051V27.9058C2.82051 29.2585 4.11422 30.256 5.4611 29.9418L7 29.5828V131.417L5.4611 131.058C4.11422 130.744 2.82051 131.742 2.82051 133.094V134.45H2.14286C0.959389 134.45 0 135.387 0 136.543V158.907C0 160.063 0.959389 161 2.14286 161H17.8571C19.0406 161 20 160.063 20 158.907L19.9111 158.949C19.9688 158.76 20 158.558 20 158.348V152H90V158.348C90 158.558 90.0312 158.76 90.0889 158.949L90 158.907C90 160.063 90.9594 161 92.1429 161H107.857C109.041 161 110 160.063 110 158.907V136.543C110 135.387 109.041 134.45 107.857 134.45H107.179V133.094C107.179 131.742 105.886 130.744 104.539 131.058L104 131.184V29.8161L104.539 29.9418C105.886 30.256 107.179 29.2585 107.179 27.9058V26.5502H107.857C109.041 26.5502 110 25.613 110 24.457V2.09324C110 0.937177 109.041 0 107.857 0H92.1429C90.9594 0 90 0.937177 90 2.09324L90.0889 2.05113C90.0312 2.24046 90 2.44194 90 2.65198V9H20V2.65198C20 2.44194 19.9688 2.24046 19.9111 2.05113L20 2.09324ZM20 150H90V136.102C90 135.133 90.6805 134.291 91.6451 134.066L102 131.65V29.3495L91.6451 26.934C90.6805 26.709 90 25.8668 90 24.898V11H20V24.898C20 25.8668 19.3195 26.709 18.3549 26.934L9 29.1163V131.884L18.3549 134.066C19.3195 134.291 20 135.133 20 136.102V150ZM4.79746 4.98114L17.6912 1.97332C18.1402 1.86859 18.5714 2.20109 18.5714 2.65198V24.898C18.5714 25.2209 18.3446 25.5016 18.0231 25.5766L5.12928 28.5845C4.68032 28.6892 4.24908 28.3567 4.24908 27.9058V5.6598C4.24908 5.33688 4.47592 5.05614 4.79746 4.98114ZM92.3088 1.97332L105.203 4.98114C105.524 5.05614 105.751 5.33688 105.751 5.6598V27.9058C105.751 28.3567 105.32 28.6892 104.871 28.5845L91.9769 25.5766C91.6554 25.5016 91.4286 25.2209 91.4286 24.898V2.65198C91.4286 2.20109 91.8598 1.86859 92.3088 1.97332ZM92.3088 159.027L105.203 156.019C105.524 155.944 105.751 155.663 105.751 155.34V133.094C105.751 132.643 105.32 132.311 104.871 132.416L91.9769 135.423C91.6554 135.498 91.4286 135.779 91.4286 136.102V158.348C91.4286 158.799 91.8598 159.131 92.3088 159.027ZM4.79746 156.019L17.6912 159.027C18.1402 159.131 18.5714 158.799 18.5714 158.348V136.102C18.5714 135.779 18.3446 135.498 18.0231 135.423L5.12928 132.416C4.68032 132.311 4.24908 132.643 4.24908 133.094V155.34C4.24908 155.663 4.47592 155.944 4.79746 156.019Z" fill="#E8F1F2"/>
</svg>
