<svg width="226" height="66" viewBox="0 0 226 66" fill="none" xmlns="http://www.w3.org/2000/svg">
<path d="M25.9222 54.3949C32.2686 55.2099 35.8267 55.6668 42.1731 56.4818L36.3255 63.4879L25.9222 54.3949Z" fill="#001A23" fill-opacity="0.24"/>
<path d="M0 4.60514C0 2.06179 2.06269 0 4.60714 0H38.3929C40.9373 0 43 2.06179 43 4.60514V53.8053C43 56.3487 40.9373 58.4104 38.3929 58.4104H4.60714C2.06269 58.4104 0 56.3487 0 53.8053V4.60514Z" fill="#001A23"/>
<path d="M0 5.83436C0 2.85844 2.78148 0.663944 5.67727 1.35517L33.3989 7.97238C35.4728 8.46743 36.9359 10.3203 36.9359 12.4516V61.3928C36.9359 64.3687 34.1544 66.5632 31.2586 65.8719L3.53702 59.2547C1.4631 58.7597 0 56.9069 0 54.7756V5.83436Z" fill="white"/>
<path fill-rule="evenodd" clip-rule="evenodd" d="M32.6855 10.9585L4.96385 4.3413C3.99859 4.11089 3.07143 4.84239 3.07143 5.83436V54.7756C3.07143 55.486 3.55913 56.1036 4.25043 56.2686L31.972 62.8858C32.9373 63.1162 33.8645 62.3847 33.8645 61.3928V12.4516C33.8645 11.7411 33.3768 11.1235 32.6855 10.9585ZM5.67727 1.35517C2.78148 0.663944 0 2.85844 0 5.83436V54.7756C0 56.9069 1.4631 58.7597 3.53702 59.2547L31.2586 65.8719C34.1544 66.5632 36.9359 64.3687 36.9359 61.3928V12.4516C36.9359 10.3203 35.4728 8.46743 33.3989 7.97238L5.67727 1.35517Z" fill="#001A23"/>
<path d="M24.1902 31.6581L11.4359 26.8956C11.3449 26.8615 11.2461 26.8542 11.1511 26.8746C11.0562 26.8951 10.9691 26.9424 10.9001 27.0109C10.8312 27.0795 10.7833 27.1664 10.7622 27.2614C10.741 27.3564 10.7475 27.4555 10.7809 27.5469L15.5587 40.3485C15.5958 40.4476 15.6628 40.5327 15.7505 40.5919C15.8381 40.651 15.9419 40.6813 16.0476 40.6785C16.1532 40.6757 16.2553 40.64 16.3397 40.5763C16.4241 40.5125 16.4865 40.424 16.5183 40.323L17.8841 35.871L22.5147 40.3994C22.6098 40.4941 22.7385 40.5473 22.8726 40.5473C23.0068 40.5473 23.1355 40.4941 23.2306 40.3994L24.4238 39.2037C24.5183 39.1083 24.5714 38.9794 24.5714 38.845C24.5714 38.7105 24.5183 38.5816 24.4238 38.4863L19.8085 33.9782L24.1902 32.6197C24.29 32.5851 24.3765 32.5202 24.4377 32.434C24.499 32.3479 24.5319 32.2447 24.5319 32.1389C24.5319 32.0331 24.499 31.9299 24.4377 31.8438C24.3765 31.7576 24.29 31.6927 24.1902 31.6581Z" fill="#3AD38C"/>
<path d="M65.6 56.168C64.5653 56.168 63.6213 55.928 62.768 55.448C61.9147 54.9573 61.2373 54.28 60.736 53.416C60.2453 52.5413 60 51.56 60 50.472C60 49.384 60.2453 48.408 60.736 47.544C61.2373 46.6693 61.9147 45.992 62.768 45.512C63.6213 45.0213 64.5653 44.776 65.6 44.776C66.6453 44.776 67.5947 45.0213 68.448 45.512C69.3013 45.992 69.9733 46.664 70.464 47.528C70.9547 48.392 71.2 49.3733 71.2 50.472C71.2 51.5707 70.9547 52.552 70.464 53.416C69.9733 54.28 69.3013 54.9573 68.448 55.448C67.5947 55.928 66.6453 56.168 65.6 56.168ZM65.6 54.904C66.3787 54.904 67.0773 54.7227 67.696 54.36C68.3253 53.9973 68.816 53.48 69.168 52.808C69.5307 52.136 69.712 51.3573 69.712 50.472C69.712 49.576 69.5307 48.7973 69.168 48.136C68.816 47.464 68.3307 46.9467 67.712 46.584C67.0933 46.2213 66.3893 46.04 65.6 46.04C64.8107 46.04 64.1067 46.2213 63.488 46.584C62.8693 46.9467 62.3787 47.464 62.016 48.136C61.664 48.7973 61.488 49.576 61.488 50.472C61.488 51.3573 61.664 52.136 62.016 52.808C62.3787 53.48 62.8693 53.9973 63.488 54.36C64.1173 54.7227 64.8213 54.904 65.6 54.904Z" fill="#5C7E82"/>
<path d="M86.6901 56.056H85.2341L79.3781 47.176V56.056H77.9221V44.888H79.3781L85.2341 53.752V44.888H86.6901V56.056Z" fill="#5C7E82"/>
<path d="M95.4281 54.872H99.3321V56.056H93.9721V44.904H95.4281V54.872Z" fill="#5C7E82"/>
<path d="M107.134 44.904V56.056H105.678V44.904H107.134Z" fill="#5C7E82"/>
<path d="M123.184 56.056H121.728L115.872 47.176V56.056H114.416V44.888H115.872L121.728 53.752V44.888H123.184V56.056Z" fill="#5C7E82"/>
<path d="M131.922 46.088V49.816H135.986V51.016H131.922V54.856H136.466V56.056H130.466V44.888H136.466V46.088H131.922Z" fill="#5C7E82"/>
<path d="M158.407 56.056L155.751 51.496H153.991V56.056H152.535V44.904H156.135C156.977 44.904 157.687 45.048 158.263 45.336C158.849 45.624 159.287 46.0133 159.575 46.504C159.863 46.9947 160.007 47.5547 160.007 48.184C160.007 48.952 159.783 49.6293 159.335 50.216C158.897 50.8027 158.236 51.192 157.351 51.384L160.151 56.056H158.407ZM153.991 50.328H156.135C156.924 50.328 157.516 50.136 157.911 49.752C158.305 49.3573 158.503 48.8347 158.503 48.184C158.503 47.5227 158.305 47.0107 157.911 46.648C157.527 46.2853 156.935 46.104 156.135 46.104H153.991V50.328Z" fill="#5C7E82"/>
<path d="M172.125 56.168C171.09 56.168 170.146 55.928 169.293 55.448C168.44 54.9573 167.762 54.28 167.261 53.416C166.77 52.5413 166.525 51.56 166.525 50.472C166.525 49.384 166.77 48.408 167.261 47.544C167.762 46.6693 168.44 45.992 169.293 45.512C170.146 45.0213 171.09 44.776 172.125 44.776C173.17 44.776 174.12 45.0213 174.973 45.512C175.826 45.992 176.498 46.664 176.989 47.528C177.48 48.392 177.725 49.3733 177.725 50.472C177.725 51.5707 177.48 52.552 176.989 53.416C176.498 54.28 175.826 54.9573 174.973 55.448C174.12 55.928 173.17 56.168 172.125 56.168ZM172.125 54.904C172.904 54.904 173.602 54.7227 174.221 54.36C174.85 53.9973 175.341 53.48 175.693 52.808C176.056 52.136 176.237 51.3573 176.237 50.472C176.237 49.576 176.056 48.7973 175.693 48.136C175.341 47.464 174.856 46.9467 174.237 46.584C173.618 46.2213 172.914 46.04 172.125 46.04C171.336 46.04 170.632 46.2213 170.013 46.584C169.394 46.9467 168.904 47.464 168.541 48.136C168.189 48.7973 168.013 49.576 168.013 50.472C168.013 51.3573 168.189 52.136 168.541 52.808C168.904 53.48 169.394 53.9973 170.013 54.36C170.642 54.7227 171.346 54.904 172.125 54.904Z" fill="#5C7E82"/>
<path d="M189.503 56.168C188.468 56.168 187.524 55.928 186.671 55.448C185.818 54.9573 185.14 54.28 184.639 53.416C184.148 52.5413 183.903 51.56 183.903 50.472C183.903 49.384 184.148 48.408 184.639 47.544C185.14 46.6693 185.818 45.992 186.671 45.512C187.524 45.0213 188.468 44.776 189.503 44.776C190.548 44.776 191.498 45.0213 192.351 45.512C193.204 45.992 193.876 46.664 194.367 47.528C194.858 48.392 195.103 49.3733 195.103 50.472C195.103 51.5707 194.858 52.552 194.367 53.416C193.876 54.28 193.204 54.9573 192.351 55.448C191.498 55.928 190.548 56.168 189.503 56.168ZM189.503 54.904C190.282 54.904 190.98 54.7227 191.599 54.36C192.228 53.9973 192.719 53.48 193.071 52.808C193.434 52.136 193.615 51.3573 193.615 50.472C193.615 49.576 193.434 48.7973 193.071 48.136C192.719 47.464 192.234 46.9467 191.615 46.584C190.996 46.2213 190.292 46.04 189.503 46.04C188.714 46.04 188.01 46.2213 187.391 46.584C186.772 46.9467 186.282 47.464 185.919 48.136C185.567 48.7973 185.391 49.576 185.391 50.472C185.391 51.3573 185.567 52.136 185.919 52.808C186.282 53.48 186.772 53.9973 187.391 54.36C188.02 54.7227 188.724 54.904 189.503 54.904Z" fill="#5C7E82"/>
<path d="M213.137 44.984V56.056H211.681V47.8L208.001 56.056H206.977L203.281 47.784V56.056H201.825V44.984H203.393L207.489 54.136L211.585 44.984H213.137Z" fill="#5C7E82"/>
<path d="M64.9038 17.56C65.3038 16.936 65.8558 16.432 66.5598 16.048C67.2638 15.664 68.0878 15.472 69.0318 15.472C70.1358 15.472 71.1358 15.752 72.0318 16.312C72.9278 16.872 73.6318 17.672 74.1438 18.712C74.6718 19.752 74.9358 20.96 74.9358 22.336C74.9358 23.712 74.6718 24.928 74.1438 25.984C73.6318 27.024 72.9278 27.832 72.0318 28.408C71.1358 28.968 70.1358 29.248 69.0318 29.248C68.1038 29.248 67.2798 29.056 66.5598 28.672C65.8558 28.288 65.3038 27.792 64.9038 27.184V35.44H60.7998V15.664H64.9038V17.56ZM70.7598 22.336C70.7598 21.312 70.4718 20.512 69.8958 19.936C69.3358 19.344 68.6398 19.048 67.8078 19.048C66.9918 19.048 66.2958 19.344 65.7198 19.936C65.1598 20.528 64.8798 21.336 64.8798 22.36C64.8798 23.384 65.1598 24.192 65.7198 24.784C66.2958 25.376 66.9918 25.672 67.8078 25.672C68.6238 25.672 69.3198 25.376 69.8958 24.784C70.4718 24.176 70.7598 23.36 70.7598 22.336Z" fill="#001A23"/>
<path d="M81.1929 11.296V29.056H77.0889V11.296H81.1929Z" fill="#001A23"/>
<path d="M83.351 22.336C83.351 20.96 83.607 19.752 84.119 18.712C84.647 17.672 85.359 16.872 86.255 16.312C87.151 15.752 88.151 15.472 89.255 15.472C90.199 15.472 91.023 15.664 91.727 16.048C92.447 16.432 92.999 16.936 93.383 17.56V15.664H97.487V29.056H93.383V27.16C92.983 27.784 92.423 28.288 91.703 28.672C90.999 29.056 90.175 29.248 89.231 29.248C88.143 29.248 87.151 28.968 86.255 28.408C85.359 27.832 84.647 27.024 84.119 25.984C83.607 24.928 83.351 23.712 83.351 22.336ZM93.383 22.36C93.383 21.336 93.095 20.528 92.519 19.936C91.959 19.344 91.271 19.048 90.455 19.048C89.639 19.048 88.943 19.344 88.367 19.936C87.807 20.512 87.527 21.312 87.527 22.336C87.527 23.36 87.807 24.176 88.367 24.784C88.943 25.376 89.639 25.672 90.455 25.672C91.271 25.672 91.959 25.376 92.519 24.784C93.095 24.192 93.383 23.384 93.383 22.36Z" fill="#001A23"/>
<path d="M108.616 15.52C110.184 15.52 111.432 16.032 112.36 17.056C113.304 18.064 113.776 19.456 113.776 21.232V29.056H109.696V21.784C109.696 20.888 109.464 20.192 109 19.696C108.536 19.2 107.912 18.952 107.128 18.952C106.344 18.952 105.72 19.2 105.256 19.696C104.792 20.192 104.56 20.888 104.56 21.784V29.056H100.456V15.664H104.56V17.44C104.976 16.848 105.536 16.384 106.24 16.048C106.944 15.696 107.736 15.52 108.616 15.52Z" fill="#001A23"/>
<path d="M118.692 14.272C117.972 14.272 117.38 14.064 116.916 13.648C116.468 13.216 116.244 12.688 116.244 12.064C116.244 11.424 116.468 10.896 116.916 10.48C117.38 10.048 117.972 9.83203 118.692 9.83203C119.396 9.83203 119.972 10.048 120.42 10.48C120.884 10.896 121.116 11.424 121.116 12.064C121.116 12.688 120.884 13.216 120.42 13.648C119.972 14.064 119.396 14.272 118.692 14.272ZM120.732 15.664V29.056H116.628V15.664H120.732Z" fill="#001A23"/>
<path d="M131.866 15.52C133.434 15.52 134.682 16.032 135.61 17.056C136.554 18.064 137.026 19.456 137.026 21.232V29.056H132.946V21.784C132.946 20.888 132.714 20.192 132.25 19.696C131.786 19.2 131.162 18.952 130.378 18.952C129.594 18.952 128.97 19.2 128.506 19.696C128.042 20.192 127.81 20.888 127.81 21.784V29.056H123.706V15.664H127.81V17.44C128.226 16.848 128.786 16.384 129.49 16.048C130.194 15.696 130.986 15.52 131.866 15.52Z" fill="#001A23"/>
<path d="M144.966 15.472C145.91 15.472 146.734 15.664 147.438 16.048C148.158 16.432 148.71 16.936 149.094 17.56V15.664H153.198V29.032C153.198 30.264 152.95 31.376 152.454 32.368C151.974 33.376 151.23 34.176 150.222 34.768C149.23 35.36 147.99 35.656 146.502 35.656C144.518 35.656 142.91 35.184 141.678 34.24C140.446 33.312 139.742 32.048 139.566 30.448H143.622C143.75 30.96 144.054 31.36 144.534 31.648C145.014 31.952 145.606 32.104 146.31 32.104C147.158 32.104 147.83 31.856 148.326 31.36C148.838 30.88 149.094 30.104 149.094 29.032V27.136C148.694 27.76 148.142 28.272 147.438 28.672C146.734 29.056 145.91 29.248 144.966 29.248C143.862 29.248 142.862 28.968 141.966 28.408C141.07 27.832 140.358 27.024 139.83 25.984C139.318 24.928 139.062 23.712 139.062 22.336C139.062 20.96 139.318 19.752 139.83 18.712C140.358 17.672 141.07 16.872 141.966 16.312C142.862 15.752 143.862 15.472 144.966 15.472ZM149.094 22.36C149.094 21.336 148.806 20.528 148.23 19.936C147.67 19.344 146.982 19.048 146.166 19.048C145.35 19.048 144.654 19.344 144.078 19.936C143.518 20.512 143.238 21.312 143.238 22.336C143.238 23.36 143.518 24.176 144.078 24.784C144.654 25.376 145.35 25.672 146.166 25.672C146.982 25.672 147.67 25.376 148.23 24.784C148.806 24.192 149.094 23.384 149.094 22.36Z" fill="#001A23"/>
<path d="M160.271 17.56C160.671 16.936 161.223 16.432 161.927 16.048C162.631 15.664 163.455 15.472 164.399 15.472C165.503 15.472 166.503 15.752 167.399 16.312C168.295 16.872 168.999 17.672 169.511 18.712C170.039 19.752 170.303 20.96 170.303 22.336C170.303 23.712 170.039 24.928 169.511 25.984C168.999 27.024 168.295 27.832 167.399 28.408C166.503 28.968 165.503 29.248 164.399 29.248C163.471 29.248 162.647 29.056 161.927 28.672C161.223 28.288 160.671 27.792 160.271 27.184V35.44H156.167V15.664H160.271V17.56ZM166.127 22.336C166.127 21.312 165.839 20.512 165.263 19.936C164.703 19.344 164.007 19.048 163.175 19.048C162.359 19.048 161.663 19.344 161.087 19.936C160.527 20.528 160.247 21.336 160.247 22.36C160.247 23.384 160.527 24.192 161.087 24.784C161.663 25.376 162.359 25.672 163.175 25.672C163.991 25.672 164.687 25.376 165.263 24.784C165.839 24.176 166.127 23.36 166.127 22.336Z" fill="#3AD38C"/>
<path d="M178.552 29.248C177.24 29.248 176.056 28.968 175 28.408C173.96 27.848 173.136 27.048 172.528 26.008C171.936 24.968 171.64 23.752 171.64 22.36C171.64 20.984 171.944 19.776 172.552 18.736C173.16 17.68 173.992 16.872 175.048 16.312C176.104 15.752 177.288 15.472 178.6 15.472C179.912 15.472 181.096 15.752 182.152 16.312C183.208 16.872 184.04 17.68 184.648 18.736C185.256 19.776 185.56 20.984 185.56 22.36C185.56 23.736 185.248 24.952 184.624 26.008C184.016 27.048 183.176 27.848 182.104 28.408C181.048 28.968 179.864 29.248 178.552 29.248ZM178.552 25.696C179.336 25.696 180 25.408 180.544 24.832C181.104 24.256 181.384 23.432 181.384 22.36C181.384 21.288 181.112 20.464 180.568 19.888C180.04 19.312 179.384 19.024 178.6 19.024C177.8 19.024 177.136 19.312 176.608 19.888C176.08 20.448 175.816 21.272 175.816 22.36C175.816 23.432 176.072 24.256 176.584 24.832C177.112 25.408 177.768 25.696 178.552 25.696Z" fill="#3AD38C"/>
<path d="M195.921 29.056L191.841 23.44V29.056H187.737V11.296H191.841V21.112L195.897 15.664H200.961L195.393 22.384L201.009 29.056H195.921Z" fill="#3AD38C"/>
<path d="M215.197 22.144C215.197 22.528 215.173 22.928 215.125 23.344H205.837C205.901 24.176 206.165 24.816 206.629 25.264C207.109 25.696 207.693 25.912 208.381 25.912C209.405 25.912 210.117 25.48 210.517 24.616H214.885C214.661 25.496 214.253 26.288 213.661 26.992C213.085 27.696 212.357 28.248 211.477 28.648C210.597 29.048 209.613 29.248 208.525 29.248C207.213 29.248 206.045 28.968 205.021 28.408C203.997 27.848 203.197 27.048 202.621 26.008C202.045 24.968 201.757 23.752 201.757 22.36C201.757 20.968 202.037 19.752 202.597 18.712C203.173 17.672 203.973 16.872 204.997 16.312C206.021 15.752 207.197 15.472 208.525 15.472C209.821 15.472 210.973 15.744 211.981 16.288C212.989 16.832 213.773 17.608 214.333 18.616C214.909 19.624 215.197 20.8 215.197 22.144ZM210.997 21.064C210.997 20.36 210.757 19.8 210.277 19.384C209.797 18.968 209.197 18.76 208.477 18.76C207.789 18.76 207.205 18.96 206.725 19.36C206.261 19.76 205.973 20.328 205.861 21.064H210.997Z" fill="#3AD38C"/>
<path d="M221.466 17.896C221.946 17.16 222.546 16.584 223.266 16.168C223.986 15.736 224.786 15.52 225.666 15.52V19.864H224.538C223.514 19.864 222.746 20.088 222.234 20.536C221.722 20.968 221.466 21.736 221.466 22.84V29.056H217.362V15.664H221.466V17.896Z" fill="#3AD38C"/>
</svg>
