<svg width="242" height="66" viewBox="0 0 242 66" fill="none" xmlns="http://www.w3.org/2000/svg">
<path d="M25.9222 54.3949C32.2686 55.2099 35.8267 55.6668 42.1731 56.4818L36.3255 63.4879L25.9222 54.3949Z" fill="#001A23" fill-opacity="0.24"/>
<path d="M0 4.60514C0 2.06179 2.06269 0 4.60714 0H38.3929C40.9373 0 43 2.06179 43 4.60514V53.8053C43 56.3487 40.9373 58.4104 38.3929 58.4104H4.60714C2.06269 58.4104 0 56.3487 0 53.8053V4.60514Z" fill="#001A23"/>
<path d="M0 5.83436C0 2.85844 2.78147 0.663944 5.67727 1.35517L33.3989 7.97238C35.4728 8.46743 36.9359 10.3203 36.9359 12.4516V61.3928C36.9359 64.3687 34.1544 66.5632 31.2586 65.8719L3.53702 59.2547C1.4631 58.7597 0 56.9069 0 54.7756V5.83436Z" fill="white"/>
<path fill-rule="evenodd" clip-rule="evenodd" d="M32.6855 10.9585L4.96385 4.3413C3.99859 4.11089 3.07143 4.84239 3.07143 5.83436V54.7756C3.07143 55.486 3.55913 56.1036 4.25043 56.2686L31.972 62.8858C32.9373 63.1162 33.8645 62.3847 33.8645 61.3928V12.4516C33.8645 11.7411 33.3768 11.1235 32.6855 10.9585ZM5.67727 1.35517C2.78147 0.663944 0 2.85844 0 5.83436V54.7756C0 56.9069 1.4631 58.7597 3.53702 59.2547L31.2586 65.8719C34.1544 66.5632 36.9359 64.3687 36.9359 61.3928V12.4516C36.9359 10.3203 35.4728 8.46743 33.3989 7.97238L5.67727 1.35517Z" fill="#001A23"/>
<path d="M24.1902 31.6581L11.4359 26.8956C11.3449 26.8615 11.2461 26.8542 11.1511 26.8746C11.0562 26.8951 10.9691 26.9424 10.9001 27.0109C10.8312 27.0795 10.7833 27.1664 10.7622 27.2614C10.741 27.3564 10.7475 27.4555 10.7809 27.5469L15.5587 40.3485C15.5958 40.4476 15.6628 40.5327 15.7505 40.5919C15.8381 40.651 15.9419 40.6813 16.0476 40.6785C16.1532 40.6757 16.2553 40.64 16.3397 40.5763C16.4241 40.5125 16.4865 40.424 16.5183 40.323L17.8841 35.871L22.5147 40.3994C22.6098 40.4941 22.7385 40.5473 22.8726 40.5473C23.0068 40.5473 23.1355 40.4941 23.2306 40.3994L24.4238 39.2037C24.5183 39.1083 24.5714 38.9794 24.5714 38.845C24.5714 38.7105 24.5183 38.5816 24.4238 38.4863L19.8085 33.9782L24.1902 32.6197C24.29 32.5851 24.3765 32.5202 24.4377 32.434C24.499 32.3479 24.5319 32.2447 24.5319 32.1389C24.5319 32.0331 24.499 31.9299 24.4377 31.8438C24.3765 31.7576 24.29 31.6927 24.1902 31.6581Z" fill="#3AD38C"/>
<path d="M65.6 56.336C64.5653 56.336 63.6213 56.096 62.768 55.616C61.9147 55.1253 61.2373 54.448 60.736 53.584C60.2453 52.7093 60 51.728 60 50.64C60 49.552 60.2453 48.576 60.736 47.712C61.2373 46.8373 61.9147 46.16 62.768 45.68C63.6213 45.1893 64.5653 44.944 65.6 44.944C66.6453 44.944 67.5947 45.1893 68.448 45.68C69.3013 46.16 69.9733 46.832 70.464 47.696C70.9547 48.56 71.2 49.5413 71.2 50.64C71.2 51.7386 70.9547 52.72 70.464 53.584C69.9733 54.448 69.3013 55.1253 68.448 55.616C67.5947 56.096 66.6453 56.336 65.6 56.336ZM65.6 55.072C66.3787 55.072 67.0773 54.8906 67.696 54.528C68.3253 54.1653 68.816 53.648 69.168 52.976C69.5307 52.304 69.712 51.5253 69.712 50.64C69.712 49.744 69.5307 48.9653 69.168 48.304C68.816 47.632 68.3307 47.1146 67.712 46.752C67.0933 46.3893 66.3893 46.208 65.6 46.208C64.8107 46.208 64.1067 46.3893 63.488 46.752C62.8693 47.1146 62.3787 47.632 62.016 48.304C61.664 48.9653 61.488 49.744 61.488 50.64C61.488 51.5253 61.664 52.304 62.016 52.976C62.3787 53.648 62.8693 54.1653 63.488 54.528C64.1173 54.8906 64.8213 55.072 65.6 55.072Z" fill="#5C7E82"/>
<path d="M86.6901 56.224H85.2341L79.3781 47.344V56.224H77.9221V45.056H79.3781L85.2341 53.92V45.056H86.6901V56.224Z" fill="#5C7E82"/>
<path d="M95.4281 55.04H99.3321V56.224H93.9721V45.072H95.4281V55.04Z" fill="#5C7E82"/>
<path d="M107.134 45.072V56.224H105.678V45.072H107.134Z" fill="#5C7E82"/>
<path d="M123.184 56.224H121.728L115.872 47.344V56.224H114.416V45.056H115.872L121.728 53.92V45.056H123.184V56.224Z" fill="#5C7E82"/>
<path d="M131.922 46.256V49.984H135.986V51.184H131.922V55.024H136.466V56.224H130.466V45.056H136.466V46.256H131.922Z" fill="#5C7E82"/>
<path d="M158.407 56.224L155.751 51.664H153.991V56.224H152.535V45.072H156.135C156.977 45.072 157.687 45.216 158.263 45.504C158.849 45.792 159.287 46.1813 159.575 46.672C159.863 47.1626 160.007 47.7226 160.007 48.352C160.007 49.12 159.783 49.7973 159.335 50.384C158.897 50.9706 158.236 51.36 157.351 51.552L160.151 56.224H158.407ZM153.991 50.496H156.135C156.924 50.496 157.516 50.304 157.911 49.92C158.305 49.5253 158.503 49.0026 158.503 48.352C158.503 47.6906 158.305 47.1786 157.911 46.816C157.527 46.4533 156.935 46.272 156.135 46.272H153.991V50.496Z" fill="#5C7E82"/>
<path d="M172.125 56.336C171.09 56.336 170.146 56.096 169.293 55.616C168.44 55.1253 167.762 54.448 167.261 53.584C166.77 52.7093 166.525 51.728 166.525 50.64C166.525 49.552 166.77 48.576 167.261 47.712C167.762 46.8373 168.44 46.16 169.293 45.68C170.146 45.1893 171.09 44.944 172.125 44.944C173.17 44.944 174.12 45.1893 174.973 45.68C175.826 46.16 176.498 46.832 176.989 47.696C177.48 48.56 177.725 49.5413 177.725 50.64C177.725 51.7386 177.48 52.72 176.989 53.584C176.498 54.448 175.826 55.1253 174.973 55.616C174.12 56.096 173.17 56.336 172.125 56.336ZM172.125 55.072C172.904 55.072 173.602 54.8906 174.221 54.528C174.85 54.1653 175.341 53.648 175.693 52.976C176.056 52.304 176.237 51.5253 176.237 50.64C176.237 49.744 176.056 48.9653 175.693 48.304C175.341 47.632 174.856 47.1146 174.237 46.752C173.618 46.3893 172.914 46.208 172.125 46.208C171.336 46.208 170.632 46.3893 170.013 46.752C169.394 47.1146 168.904 47.632 168.541 48.304C168.189 48.9653 168.013 49.744 168.013 50.64C168.013 51.5253 168.189 52.304 168.541 52.976C168.904 53.648 169.394 54.1653 170.013 54.528C170.642 54.8906 171.346 55.072 172.125 55.072Z" fill="#5C7E82"/>
<path d="M189.503 56.336C188.468 56.336 187.524 56.096 186.671 55.616C185.818 55.1253 185.14 54.448 184.639 53.584C184.148 52.7093 183.903 51.728 183.903 50.64C183.903 49.552 184.148 48.576 184.639 47.712C185.14 46.8373 185.818 46.16 186.671 45.68C187.524 45.1893 188.468 44.944 189.503 44.944C190.548 44.944 191.498 45.1893 192.351 45.68C193.204 46.16 193.876 46.832 194.367 47.696C194.858 48.56 195.103 49.5413 195.103 50.64C195.103 51.7386 194.858 52.72 194.367 53.584C193.876 54.448 193.204 55.1253 192.351 55.616C191.498 56.096 190.548 56.336 189.503 56.336ZM189.503 55.072C190.282 55.072 190.98 54.8906 191.599 54.528C192.228 54.1653 192.719 53.648 193.071 52.976C193.434 52.304 193.615 51.5253 193.615 50.64C193.615 49.744 193.434 48.9653 193.071 48.304C192.719 47.632 192.234 47.1146 191.615 46.752C190.996 46.3893 190.292 46.208 189.503 46.208C188.714 46.208 188.01 46.3893 187.391 46.752C186.772 47.1146 186.282 47.632 185.919 48.304C185.567 48.9653 185.391 49.744 185.391 50.64C185.391 51.5253 185.567 52.304 185.919 52.976C186.282 53.648 186.772 54.1653 187.391 54.528C188.02 54.8906 188.724 55.072 189.503 55.072Z" fill="#5C7E82"/>
<path d="M213.137 45.152V56.224H211.681V47.968L208.001 56.224H206.977L203.281 47.952V56.224H201.825V45.152H203.393L207.489 54.304L211.585 45.152H213.137Z" fill="#5C7E82"/>
<path d="M64.904 17.728C65.304 17.104 65.856 16.6 66.56 16.216C67.264 15.832 68.088 15.64 69.032 15.64C70.136 15.64 71.136 15.92 72.032 16.48C72.928 17.04 73.632 17.84 74.144 18.88C74.672 19.92 74.936 21.128 74.936 22.504C74.936 23.88 74.672 25.096 74.144 26.152C73.632 27.192 72.928 28 72.032 28.576C71.136 29.136 70.136 29.416 69.032 29.416C68.104 29.416 67.28 29.224 66.56 28.84C65.856 28.456 65.304 27.96 64.904 27.352V35.608H60.8V15.832H64.904V17.728ZM70.76 22.504C70.76 21.48 70.472 20.68 69.896 20.104C69.336 19.512 68.64 19.216 67.808 19.216C66.992 19.216 66.296 19.512 65.72 20.104C65.16 20.696 64.88 21.504 64.88 22.528C64.88 23.552 65.16 24.36 65.72 24.952C66.296 25.544 66.992 25.84 67.808 25.84C68.624 25.84 69.32 25.544 69.896 24.952C70.472 24.344 70.76 23.528 70.76 22.504Z" fill="black"/>
<path d="M81.1931 11.464V29.224H77.0891V11.464H81.1931Z" fill="black"/>
<path d="M83.3512 22.504C83.3512 21.128 83.6072 19.92 84.1192 18.88C84.6472 17.84 85.3592 17.04 86.2552 16.48C87.1512 15.92 88.1512 15.64 89.2552 15.64C90.1992 15.64 91.0232 15.832 91.7272 16.216C92.4472 16.6 92.9992 17.104 93.3832 17.728V15.832H97.4872V29.224H93.3832V27.328C92.9832 27.952 92.4232 28.456 91.7032 28.84C90.9992 29.224 90.1752 29.416 89.2312 29.416C88.1432 29.416 87.1512 29.136 86.2552 28.576C85.3592 28 84.6472 27.192 84.1192 26.152C83.6072 25.096 83.3512 23.88 83.3512 22.504ZM93.3832 22.528C93.3832 21.504 93.0952 20.696 92.5192 20.104C91.9592 19.512 91.2712 19.216 90.4552 19.216C89.6392 19.216 88.9432 19.512 88.3672 20.104C87.8072 20.68 87.5272 21.48 87.5272 22.504C87.5272 23.528 87.8072 24.344 88.3672 24.952C88.9432 25.544 89.6392 25.84 90.4552 25.84C91.2712 25.84 91.9592 25.544 92.5192 24.952C93.0952 24.36 93.3832 23.552 93.3832 22.528Z" fill="black"/>
<path d="M108.616 15.688C110.184 15.688 111.432 16.2 112.36 17.224C113.304 18.232 113.776 19.624 113.776 21.4V29.224H109.696V21.952C109.696 21.056 109.464 20.36 109 19.864C108.536 19.368 107.912 19.12 107.128 19.12C106.344 19.12 105.72 19.368 105.256 19.864C104.792 20.36 104.56 21.056 104.56 21.952V29.224H100.456V15.832H104.56V17.608C104.976 17.016 105.536 16.552 106.24 16.216C106.944 15.864 107.736 15.688 108.616 15.688Z" fill="black"/>
<path d="M124.788 15.688C126.356 15.688 127.604 16.2 128.532 17.224C129.476 18.232 129.948 19.624 129.948 21.4V29.224H125.868V21.952C125.868 21.056 125.636 20.36 125.172 19.864C124.708 19.368 124.084 19.12 123.3 19.12C122.516 19.12 121.892 19.368 121.428 19.864C120.964 20.36 120.732 21.056 120.732 21.952V29.224H116.628V15.832H120.732V17.608C121.148 17.016 121.708 16.552 122.412 16.216C123.116 15.864 123.908 15.688 124.788 15.688Z" fill="black"/>
<path d="M134.864 14.44C134.144 14.44 133.552 14.232 133.088 13.816C132.64 13.384 132.416 12.856 132.416 12.232C132.416 11.592 132.64 11.064 133.088 10.648C133.552 10.216 134.144 10 134.864 10C135.568 10 136.144 10.216 136.592 10.648C137.056 11.064 137.288 11.592 137.288 12.232C137.288 12.856 137.056 13.384 136.592 13.816C136.144 14.232 135.568 14.44 134.864 14.44ZM136.904 15.832V29.224H132.8V15.832H136.904Z" fill="black"/>
<path d="M148.038 15.688C149.606 15.688 150.854 16.2 151.782 17.224C152.726 18.232 153.198 19.624 153.198 21.4V29.224H149.118V21.952C149.118 21.056 148.886 20.36 148.422 19.864C147.958 19.368 147.334 19.12 146.55 19.12C145.766 19.12 145.142 19.368 144.678 19.864C144.214 20.36 143.982 21.056 143.982 21.952V29.224H139.878V15.832H143.982V17.608C144.398 17.016 144.958 16.552 145.662 16.216C146.366 15.864 147.158 15.688 148.038 15.688Z" fill="black"/>
<path d="M161.138 15.64C162.082 15.64 162.906 15.832 163.61 16.216C164.33 16.6 164.882 17.104 165.266 17.728V15.832H169.37V29.2C169.37 30.432 169.122 31.544 168.626 32.536C168.146 33.544 167.402 34.344 166.394 34.936C165.402 35.528 164.162 35.824 162.674 35.824C160.69 35.824 159.082 35.352 157.85 34.408C156.618 33.48 155.914 32.216 155.738 30.616H159.794C159.922 31.128 160.226 31.528 160.706 31.816C161.186 32.12 161.778 32.272 162.482 32.272C163.33 32.272 164.002 32.024 164.498 31.528C165.01 31.048 165.266 30.272 165.266 29.2V27.304C164.866 27.928 164.314 28.44 163.61 28.84C162.906 29.224 162.082 29.416 161.138 29.416C160.034 29.416 159.034 29.136 158.138 28.576C157.242 28 156.53 27.192 156.002 26.152C155.49 25.096 155.234 23.88 155.234 22.504C155.234 21.128 155.49 19.92 156.002 18.88C156.53 17.84 157.242 17.04 158.138 16.48C159.034 15.92 160.034 15.64 161.138 15.64ZM165.266 22.528C165.266 21.504 164.978 20.696 164.402 20.104C163.842 19.512 163.154 19.216 162.338 19.216C161.522 19.216 160.826 19.512 160.25 20.104C159.69 20.68 159.41 21.48 159.41 22.504C159.41 23.528 159.69 24.344 160.25 24.952C160.826 25.544 161.522 25.84 162.338 25.84C163.154 25.84 163.842 25.544 164.402 24.952C164.978 24.36 165.266 23.552 165.266 22.528Z" fill="black"/>
<path d="M176.443 17.728C176.843 17.104 177.395 16.6 178.099 16.216C178.803 15.832 179.627 15.64 180.571 15.64C181.675 15.64 182.675 15.92 183.571 16.48C184.467 17.04 185.171 17.84 185.683 18.88C186.211 19.92 186.475 21.128 186.475 22.504C186.475 23.88 186.211 25.096 185.683 26.152C185.171 27.192 184.467 28 183.571 28.576C182.675 29.136 181.675 29.416 180.571 29.416C179.643 29.416 178.819 29.224 178.099 28.84C177.395 28.456 176.843 27.96 176.443 27.352V35.608H172.339V15.832H176.443V17.728ZM182.299 22.504C182.299 21.48 182.011 20.68 181.435 20.104C180.875 19.512 180.179 19.216 179.347 19.216C178.531 19.216 177.835 19.512 177.259 20.104C176.699 20.696 176.419 21.504 176.419 22.528C176.419 23.552 176.699 24.36 177.259 24.952C177.835 25.544 178.531 25.84 179.347 25.84C180.163 25.84 180.859 25.544 181.435 24.952C182.011 24.344 182.299 23.528 182.299 22.504Z" fill="#3AD38C"/>
<path d="M194.724 29.416C193.412 29.416 192.228 29.136 191.172 28.576C190.132 28.016 189.308 27.216 188.7 26.176C188.108 25.136 187.812 23.92 187.812 22.528C187.812 21.152 188.116 19.944 188.724 18.904C189.332 17.848 190.164 17.04 191.22 16.48C192.276 15.92 193.46 15.64 194.772 15.64C196.084 15.64 197.268 15.92 198.324 16.48C199.38 17.04 200.212 17.848 200.82 18.904C201.428 19.944 201.732 21.152 201.732 22.528C201.732 23.904 201.42 25.12 200.796 26.176C200.188 27.216 199.348 28.016 198.276 28.576C197.22 29.136 196.036 29.416 194.724 29.416ZM194.724 25.864C195.508 25.864 196.172 25.576 196.716 25C197.276 24.424 197.556 23.6 197.556 22.528C197.556 21.456 197.284 20.632 196.74 20.056C196.212 19.48 195.556 19.192 194.772 19.192C193.972 19.192 193.308 19.48 192.78 20.056C192.252 20.616 191.988 21.44 191.988 22.528C191.988 23.6 192.244 24.424 192.756 25C193.284 25.576 193.94 25.864 194.724 25.864Z" fill="#3AD38C"/>
<path d="M212.093 29.224L208.013 23.608V29.224H203.909V11.464H208.013V21.28L212.069 15.832H217.133L211.565 22.552L217.181 29.224H212.093Z" fill="#3AD38C"/>
<path d="M231.369 22.312C231.369 22.696 231.345 23.096 231.297 23.512H222.009C222.073 24.344 222.337 24.984 222.801 25.432C223.281 25.864 223.865 26.08 224.553 26.08C225.577 26.08 226.289 25.648 226.689 24.784H231.057C230.833 25.664 230.425 26.456 229.833 27.16C229.257 27.864 228.529 28.416 227.649 28.816C226.769 29.216 225.785 29.416 224.697 29.416C223.385 29.416 222.217 29.136 221.193 28.576C220.169 28.016 219.369 27.216 218.793 26.176C218.217 25.136 217.929 23.92 217.929 22.528C217.929 21.136 218.209 19.92 218.769 18.88C219.345 17.84 220.145 17.04 221.169 16.48C222.193 15.92 223.369 15.64 224.697 15.64C225.993 15.64 227.145 15.912 228.153 16.456C229.161 17 229.945 17.776 230.505 18.784C231.081 19.792 231.369 20.968 231.369 22.312ZM227.169 21.232C227.169 20.528 226.929 19.968 226.449 19.552C225.969 19.136 225.369 18.928 224.649 18.928C223.961 18.928 223.377 19.128 222.897 19.528C222.433 19.928 222.145 20.496 222.033 21.232H227.169Z" fill="#3AD38C"/>
<path d="M237.638 18.064C238.118 17.328 238.718 16.752 239.438 16.336C240.158 15.904 240.958 15.688 241.838 15.688V20.032H240.71C239.686 20.032 238.918 20.256 238.406 20.704C237.894 21.136 237.638 21.904 237.638 23.008V29.224H233.534V15.832H237.638V18.064Z" fill="#3AD38C"/>
</svg>
