<svg width="72" height="97" viewBox="0 0 72 97" fill="none" xmlns="http://www.w3.org/2000/svg">
<path d="M40.4222 54.3949C46.7686 55.2099 50.3267 55.6668 56.6731 56.4818L50.8255 63.4879L40.4222 54.3949Z" fill="#001A23" fill-opacity="0.24"/>
<path d="M14.5 4.60514C14.5 2.06179 16.5627 0 19.1071 0H52.8929C55.4373 0 57.5 2.06179 57.5 4.60514V53.8053C57.5 56.3487 55.4373 58.4104 52.8929 58.4104H19.1071C16.5627 58.4104 14.5 56.3487 14.5 53.8053V4.60514Z" fill="#001A23"/>
<path d="M14.5 5.83436C14.5 2.85844 17.2815 0.663944 20.1773 1.35517L47.8989 7.97238C49.9728 8.46743 51.4359 10.3203 51.4359 12.4516V61.3928C51.4359 64.3687 48.6544 66.5632 45.7586 65.8719L18.037 59.2547C15.9631 58.7597 14.5 56.9069 14.5 54.7756V5.83436Z" fill="white"/>
<path fill-rule="evenodd" clip-rule="evenodd" d="M47.1855 10.9585L19.4639 4.3413C18.4986 4.11089 17.5714 4.84239 17.5714 5.83436V54.7756C17.5714 55.486 18.0591 56.1036 18.7504 56.2686L46.472 62.8858C47.4373 63.1162 48.3645 62.3847 48.3645 61.3928V12.4516C48.3645 11.7411 47.8768 11.1235 47.1855 10.9585ZM20.1773 1.35517C17.2815 0.663944 14.5 2.85844 14.5 5.83436V54.7756C14.5 56.9069 15.9631 58.7597 18.037 59.2547L45.7586 65.8719C48.6544 66.5632 51.4359 64.3687 51.4359 61.3928V12.4516C51.4359 10.3203 49.9728 8.46743 47.8989 7.97238L20.1773 1.35517Z" fill="#001A23"/>
<path d="M38.6902 31.6581L25.9359 26.8956C25.8449 26.8615 25.7461 26.8542 25.6511 26.8746C25.5562 26.8951 25.4691 26.9424 25.4001 27.0109C25.3312 27.0795 25.2833 27.1664 25.2622 27.2614C25.241 27.3564 25.2475 27.4555 25.2809 27.5469L30.0587 40.3485C30.0958 40.4476 30.1628 40.5327 30.2505 40.5919C30.3381 40.651 30.4419 40.6813 30.5476 40.6785C30.6532 40.6757 30.7553 40.64 30.8397 40.5763C30.9241 40.5125 30.9865 40.424 31.0183 40.323L32.3841 35.871L37.0147 40.3994C37.1098 40.4941 37.2385 40.5473 37.3726 40.5473C37.5068 40.5473 37.6355 40.4941 37.7306 40.3994L38.9238 39.2037C39.0183 39.1083 39.0714 38.9794 39.0714 38.845C39.0714 38.7105 39.0183 38.5816 38.9238 38.4863L34.3085 33.9782L38.6902 32.6197C38.79 32.5851 38.8765 32.5202 38.9377 32.434C38.999 32.3479 39.0319 32.2447 39.0319 32.1389C39.0319 32.0331 38.999 31.9299 38.9377 31.8438C38.8765 31.7576 38.79 31.6927 38.6902 31.6581Z" fill="#3AD38C"/>
<path d="M2.41713 97C1.97054 97 1.56308 96.8964 1.19475 96.6892C0.826428 96.4775 0.53407 96.1851 0.31768 95.8122C0.105893 95.4346 0 95.0111 0 94.5415C0 94.0718 0.105893 93.6506 0.31768 93.2776C0.53407 92.9001 0.826428 92.6077 1.19475 92.4006C1.56308 92.1888 1.97054 92.0829 2.41713 92.0829C2.86833 92.0829 3.27809 92.1888 3.64641 92.4006C4.01474 92.6077 4.30479 92.8978 4.51658 93.2707C4.72836 93.6437 4.83426 94.0672 4.83426 94.5415C4.83426 95.0157 4.72836 95.4392 4.51658 95.8122C4.30479 96.1851 4.01474 96.4775 3.64641 96.6892C3.27809 96.8964 2.86833 97 2.41713 97ZM2.41713 96.4544C2.75322 96.4544 3.05479 96.3762 3.32183 96.2196C3.59346 96.0631 3.80525 95.8398 3.95719 95.5497C4.11372 95.2597 4.19199 94.9236 4.19199 94.5415C4.19199 94.1547 4.11372 93.8186 3.95719 93.5332C3.80525 93.2431 3.59577 93.0198 3.32873 92.8633C3.0617 92.7067 2.75783 92.6285 2.41713 92.6285C2.07643 92.6285 1.77256 92.7067 1.50553 92.8633C1.23849 93.0198 1.0267 93.2431 0.870166 93.5332C0.718233 93.8186 0.642266 94.1547 0.642266 94.5415C0.642266 94.9236 0.718233 95.2597 0.870166 95.5497C1.0267 95.8398 1.23849 96.0631 1.50553 96.2196C1.77717 96.3762 2.08103 96.4544 2.41713 96.4544Z" fill="#5C7E82"/>
<path d="M11.5203 96.9517H10.8918L8.36418 93.1188V96.9517H7.73573V92.1312H8.36418L10.8918 95.9572V92.1312H11.5203V96.9517Z" fill="#5C7E82"/>
<path d="M15.2918 96.4406H16.9769V96.9517H14.6634V92.1381H15.2918V96.4406Z" fill="#5C7E82"/>
<path d="M20.3446 92.1381V96.9517H19.7162V92.1381H20.3446Z" fill="#5C7E82"/>
<path d="M27.2721 96.9517H26.6436L24.116 93.1188V96.9517H23.4875V92.1312H24.116L26.6436 95.9572V92.1312H27.2721V96.9517Z" fill="#5C7E82"/>
<path d="M31.0436 92.6492V94.2583H32.7978V94.7763H31.0436V96.4337H33.005V96.9517H30.4152V92.1312H33.005V92.6492H31.0436Z" fill="#5C7E82"/>
<path d="M42.4753 96.9517L41.3289 94.9834H40.5692V96.9517H39.9407V92.1381H41.4946C41.8583 92.1381 42.1645 92.2003 42.4131 92.3246C42.6663 92.4489 42.8551 92.617 42.9794 92.8287C43.1037 93.0405 43.1659 93.2822 43.1659 93.5539C43.1659 93.8854 43.0692 94.1777 42.8758 94.431C42.687 94.6842 42.4016 94.8522 42.0195 94.9351L43.228 96.9517H42.4753ZM40.5692 94.4793H41.4946C41.8353 94.4793 42.0908 94.3964 42.2612 94.2307C42.4315 94.0603 42.5167 93.8347 42.5167 93.5539C42.5167 93.2684 42.4315 93.0474 42.2612 92.8909C42.0954 92.7344 41.8399 92.6561 41.4946 92.6561H40.5692V94.4793Z" fill="#5C7E82"/>
<path d="M48.3965 97C47.9499 97 47.5425 96.8964 47.1741 96.6892C46.8058 96.4775 46.5135 96.1851 46.2971 95.8122C46.0853 95.4346 45.9794 95.0111 45.9794 94.5415C45.9794 94.0718 46.0853 93.6506 46.2971 93.2776C46.5135 92.9001 46.8058 92.6077 47.1741 92.4006C47.5425 92.1888 47.9499 92.0829 48.3965 92.0829C48.8477 92.0829 49.2575 92.1888 49.6258 92.4006C49.9941 92.6077 50.2842 92.8978 50.496 93.2707C50.7078 93.6437 50.8137 94.0672 50.8137 94.5415C50.8137 95.0157 50.7078 95.4392 50.496 95.8122C50.2842 96.1851 49.9941 96.4775 49.6258 96.6892C49.2575 96.8964 48.8477 97 48.3965 97ZM48.3965 96.4544C48.7326 96.4544 49.0342 96.3762 49.3012 96.2196C49.5729 96.0631 49.7846 95.8398 49.9366 95.5497C50.0931 95.2597 50.1714 94.9236 50.1714 94.5415C50.1714 94.1547 50.0931 93.8186 49.9366 93.5332C49.7846 93.2431 49.5752 93.0198 49.3081 92.8633C49.0411 92.7067 48.7372 92.6285 48.3965 92.6285C48.0558 92.6285 47.752 92.7067 47.4849 92.8633C47.2179 93.0198 47.0061 93.2431 46.8496 93.5332C46.6976 93.8186 46.6217 94.1547 46.6217 94.5415C46.6217 94.9236 46.6976 95.2597 46.8496 95.5497C47.0061 95.8398 47.2179 96.0631 47.4849 96.2196C47.7566 96.3762 48.0604 96.4544 48.3965 96.4544Z" fill="#5C7E82"/>
<path d="M55.8974 97C55.4509 97 55.0434 96.8964 54.6751 96.6892C54.3067 96.4775 54.0144 96.1851 53.798 95.8122C53.5862 95.4346 53.4803 95.0111 53.4803 94.5415C53.4803 94.0718 53.5862 93.6506 53.798 93.2776C54.0144 92.9001 54.3067 92.6077 54.6751 92.4006C55.0434 92.1888 55.4509 92.0829 55.8974 92.0829C56.3486 92.0829 56.7584 92.1888 57.1267 92.4006C57.4951 92.6077 57.7851 92.8978 57.9969 93.2707C58.2087 93.6437 58.3146 94.0672 58.3146 94.5415C58.3146 95.0157 58.2087 95.4392 57.9969 95.8122C57.7851 96.1851 57.4951 96.4775 57.1267 96.6892C56.7584 96.8964 56.3486 97 55.8974 97ZM55.8974 96.4544C56.2335 96.4544 56.5351 96.3762 56.8022 96.2196C57.0738 96.0631 57.2856 95.8398 57.4375 95.5497C57.594 95.2597 57.6723 94.9236 57.6723 94.5415C57.6723 94.1547 57.594 93.8186 57.4375 93.5332C57.2856 93.2431 57.0761 93.0198 56.8091 92.8633C56.542 92.7067 56.2381 92.6285 55.8974 92.6285C55.5567 92.6285 55.2529 92.7067 54.9858 92.8633C54.7188 93.0198 54.507 93.2431 54.3505 93.5332C54.1986 93.8186 54.1226 94.1547 54.1226 94.5415C54.1226 94.9236 54.1986 95.2597 54.3505 95.5497C54.507 95.8398 54.7188 96.0631 54.9858 96.2196C55.2575 96.3762 55.5614 96.4544 55.8974 96.4544Z" fill="#5C7E82"/>
<path d="M66.0986 92.1727V96.9517H65.4702V93.3881L63.8818 96.9517H63.4398L61.8445 93.3812V96.9517H61.216V92.1727H61.8928L63.6608 96.1229L65.4288 92.1727H66.0986Z" fill="#5C7E82"/>
<path d="M2.11662 80.3356C2.28928 80.0663 2.52754 79.8488 2.8314 79.683C3.13527 79.5173 3.49094 79.4344 3.89839 79.4344C4.37491 79.4344 4.80654 79.5553 5.19328 79.797C5.58002 80.0387 5.88389 80.384 6.10489 80.8329C6.33279 81.2818 6.44674 81.8032 6.44674 82.3971C6.44674 82.991 6.33279 83.5159 6.10489 83.9717C5.88389 84.4206 5.58002 84.7693 5.19328 85.018C4.80654 85.2597 4.37491 85.3805 3.89839 85.3805C3.49784 85.3805 3.14218 85.2977 2.8314 85.1319C2.52754 84.9662 2.28928 84.7521 2.11662 84.4896V88.0532H0.345215V79.5173H2.11662V80.3356ZM4.64425 82.3971C4.64425 81.9551 4.51994 81.6098 4.27132 81.3612C4.02961 81.1057 3.72919 80.9779 3.37008 80.9779C3.01787 80.9779 2.71745 81.1057 2.46884 81.3612C2.22712 81.6167 2.10627 81.9655 2.10627 82.4075C2.10627 82.8495 2.22712 83.1982 2.46884 83.4537C2.71745 83.7093 3.01787 83.837 3.37008 83.837C3.72229 83.837 4.0227 83.7093 4.27132 83.4537C4.51994 83.1913 4.64425 82.8391 4.64425 82.3971Z" fill="#001A23"/>
<path d="M9.14747 77.6319V85.2977H7.37606V77.6319H9.14747Z" fill="#001A23"/>
<path d="M10.079 82.3971C10.079 81.8032 10.1895 81.2818 10.4105 80.8329C10.6384 80.384 10.9457 80.0387 11.3324 79.797C11.7192 79.5553 12.1508 79.4344 12.6273 79.4344C13.0348 79.4344 13.3905 79.5173 13.6943 79.683C14.0051 79.8488 14.2434 80.0663 14.4091 80.3356V79.5173H16.1805V85.2977H14.4091V84.4793C14.2364 84.7486 13.9947 84.9662 13.684 85.1319C13.3801 85.2977 13.0244 85.3805 12.617 85.3805C12.1474 85.3805 11.7192 85.2597 11.3324 85.018C10.9457 84.7693 10.6384 84.4206 10.4105 83.9717C10.1895 83.5159 10.079 82.991 10.079 82.3971ZM14.4091 82.4075C14.4091 81.9655 14.2848 81.6167 14.0362 81.3612C13.7945 81.1057 13.4975 80.9779 13.1453 80.9779C12.7931 80.9779 12.4927 81.1057 12.244 81.3612C12.0023 81.6098 11.8815 81.9551 11.8815 82.3971C11.8815 82.8391 12.0023 83.1913 12.244 83.4537C12.4927 83.7093 12.7931 83.837 13.1453 83.837C13.4975 83.837 13.7945 83.7093 14.0362 83.4537C14.2848 83.1982 14.4091 82.8495 14.4091 82.4075Z" fill="#001A23"/>
<path d="M20.9841 79.4551C21.6609 79.4551 22.1996 79.6761 22.6002 80.1181C23.0076 80.5532 23.2114 81.154 23.2114 81.9206V85.2977H21.4503V82.1588C21.4503 81.7721 21.3502 81.4717 21.1499 81.2576C20.9496 81.0435 20.6803 80.9365 20.3419 80.9365C20.0035 80.9365 19.7341 81.0435 19.5339 81.2576C19.3336 81.4717 19.2335 81.7721 19.2335 82.1588V85.2977H17.462V79.5173H19.2335V80.2838C19.413 80.0283 19.6547 79.828 19.9586 79.683C20.2625 79.5311 20.6043 79.4551 20.9841 79.4551Z" fill="#001A23"/>
<path d="M25.3332 78.9164C25.0224 78.9164 24.7669 78.8267 24.5666 78.6471C24.3733 78.4606 24.2766 78.2327 24.2766 77.9634C24.2766 77.6872 24.3733 77.4593 24.5666 77.2797C24.7669 77.0932 25.0224 77 25.3332 77C25.6371 77 25.8857 77.0932 26.0791 77.2797C26.2793 77.4593 26.3795 77.6872 26.3795 77.9634C26.3795 78.2327 26.2793 78.4606 26.0791 78.6471C25.8857 78.8267 25.6371 78.9164 25.3332 78.9164ZM26.2137 79.5173V85.2977H24.4423V79.5173H26.2137Z" fill="#001A23"/>
<path d="M31.0195 79.4551C31.6963 79.4551 32.235 79.6761 32.6356 80.1181C33.043 80.5532 33.2468 81.154 33.2468 81.9206V85.2977H31.4857V82.1588C31.4857 81.7721 31.3856 81.4717 31.1853 81.2576C30.985 81.0435 30.7157 80.9365 30.3773 80.9365C30.0389 80.9365 29.7695 81.0435 29.5693 81.2576C29.369 81.4717 29.2689 81.7721 29.2689 82.1588V85.2977H27.4974V79.5173H29.2689V80.2838C29.4484 80.0283 29.6901 79.828 29.994 79.683C30.2979 79.5311 30.6397 79.4551 31.0195 79.4551Z" fill="#001A23"/>
<path d="M36.6738 79.4344C37.0813 79.4344 37.437 79.5173 37.7408 79.683C38.0516 79.8488 38.2899 80.0663 38.4556 80.3356V79.5173H40.227V85.2873C40.227 85.8191 40.12 86.299 39.9059 86.7272C39.6987 87.1623 39.3776 87.5076 38.9425 87.7631C38.5143 88.0187 37.9791 88.1464 37.3368 88.1464C36.4805 88.1464 35.7864 87.9427 35.2547 87.5352C34.7229 87.1347 34.419 86.5891 34.343 85.8985H36.0937C36.149 86.1195 36.2802 86.2921 36.4874 86.4164C36.6946 86.5477 36.9501 86.6133 37.254 86.6133C37.62 86.6133 37.91 86.5062 38.1241 86.2921C38.3451 86.085 38.4556 85.75 38.4556 85.2873V84.4689C38.283 84.7383 38.0447 84.9593 37.7408 85.1319C37.437 85.2977 37.0813 85.3805 36.6738 85.3805C36.1973 85.3805 35.7657 85.2597 35.379 85.018C34.9922 84.7693 34.6849 84.4206 34.457 83.9717C34.236 83.5159 34.1255 82.991 34.1255 82.3971C34.1255 81.8032 34.236 81.2818 34.457 80.8329C34.6849 80.384 34.9922 80.0387 35.379 79.797C35.7657 79.5553 36.1973 79.4344 36.6738 79.4344ZM38.4556 82.4075C38.4556 81.9655 38.3313 81.6167 38.0827 81.3612C37.841 81.1057 37.544 80.9779 37.1918 80.9779C36.8396 80.9779 36.5392 81.1057 36.2906 81.3612C36.0488 81.6098 35.928 81.9551 35.928 82.3971C35.928 82.8391 36.0488 83.1913 36.2906 83.4537C36.5392 83.7093 36.8396 83.837 37.1918 83.837C37.544 83.837 37.841 83.7093 38.0827 83.4537C38.3313 83.1982 38.4556 82.8495 38.4556 82.4075Z" fill="#001A23"/>
<path d="M43.28 80.3356C43.4526 80.0663 43.6909 79.8488 43.9948 79.683C44.2986 79.5173 44.6543 79.4344 45.0617 79.4344C45.5383 79.4344 45.9699 79.5553 46.3566 79.797C46.7434 80.0387 47.0472 80.384 47.2682 80.8329C47.4961 81.2818 47.6101 81.8032 47.6101 82.3971C47.6101 82.991 47.4961 83.5159 47.2682 83.9717C47.0472 84.4206 46.7434 84.7693 46.3566 85.018C45.9699 85.2597 45.5383 85.3805 45.0617 85.3805C44.6612 85.3805 44.3055 85.2977 43.9948 85.1319C43.6909 84.9662 43.4526 84.7521 43.28 84.4896V88.0532H41.5086V79.5173H43.28V80.3356ZM45.8076 82.3971C45.8076 81.9551 45.6833 81.6098 45.4347 81.3612C45.193 81.1057 44.8925 80.9779 44.5334 80.9779C44.1812 80.9779 43.8808 81.1057 43.6322 81.3612C43.3905 81.6167 43.2696 81.9655 43.2696 82.4075C43.2696 82.8495 43.3905 83.1982 43.6322 83.4537C43.8808 83.7093 44.1812 83.837 44.5334 83.837C44.8856 83.837 45.1861 83.7093 45.4347 83.4537C45.6833 83.1913 45.8076 82.8391 45.8076 82.3971Z" fill="#3AD38C"/>
<path d="M51.1706 85.3805C50.6043 85.3805 50.0933 85.2597 49.6375 85.018C49.1886 84.7762 48.8329 84.4309 48.5705 83.982C48.315 83.5332 48.1872 83.0083 48.1872 82.4075C48.1872 81.8135 48.3184 81.2921 48.5808 80.8432C48.8433 80.3874 49.2024 80.0387 49.6582 79.797C50.114 79.5553 50.625 79.4344 51.1913 79.4344C51.7576 79.4344 52.2687 79.5553 52.7245 79.797C53.1803 80.0387 53.5394 80.3874 53.8018 80.8432C54.0643 81.2921 54.1955 81.8135 54.1955 82.4075C54.1955 83.0014 54.0608 83.5262 53.7915 83.982C53.5291 84.4309 53.1665 84.7762 52.7038 85.018C52.248 85.2597 51.7369 85.3805 51.1706 85.3805ZM51.1706 83.8474C51.509 83.8474 51.7956 83.7231 52.0304 83.4745C52.2721 83.2258 52.393 82.8702 52.393 82.4075C52.393 81.9448 52.2756 81.5891 52.0408 81.3405C51.8129 81.0919 51.5297 80.9675 51.1913 80.9675C50.846 80.9675 50.5594 81.0919 50.3315 81.3405C50.1036 81.5822 49.9897 81.9378 49.9897 82.4075C49.9897 82.8702 50.1002 83.2258 50.3212 83.4745C50.5491 83.7231 50.8322 83.8474 51.1706 83.8474Z" fill="#3AD38C"/>
<path d="M58.6677 85.2977L56.9067 82.8736V85.2977H55.1353V77.6319H56.9067V81.8688L58.6574 79.5173H60.8431L58.4398 82.4178L60.8639 85.2977H58.6677Z" fill="#3AD38C"/>
<path d="M66.9878 82.3142C66.9878 82.48 66.9774 82.6526 66.9567 82.8322H62.9477C62.9754 83.1913 63.0893 83.4675 63.2896 83.6609C63.4968 83.8474 63.7488 83.9406 64.0458 83.9406C64.4878 83.9406 64.7951 83.7541 64.9678 83.3812H66.8531C66.7564 83.7611 66.5803 84.1029 66.3248 84.4068C66.0762 84.7106 65.762 84.9489 65.3821 85.1216C65.0023 85.2942 64.5776 85.3805 64.108 85.3805C63.5417 85.3805 63.0375 85.2597 62.5955 85.018C62.1535 84.7762 61.8082 84.4309 61.5596 83.982C61.311 83.5332 61.1867 83.0083 61.1867 82.4075C61.1867 81.8066 61.3075 81.2818 61.5493 80.8329C61.7979 80.384 62.1432 80.0387 62.5852 79.797C63.0272 79.5553 63.5348 79.4344 64.108 79.4344C64.6674 79.4344 65.1646 79.5518 65.5997 79.7866C66.0348 80.0214 66.3732 80.3564 66.6149 80.7914C66.8635 81.2265 66.9878 81.7341 66.9878 82.3142ZM65.1749 81.8481C65.1749 81.5442 65.0714 81.3025 64.8642 81.1229C64.657 80.9434 64.398 80.8536 64.0872 80.8536C63.7903 80.8536 63.5382 80.9399 63.331 81.1126C63.1307 81.2852 63.0064 81.5304 62.9581 81.8481H65.1749Z" fill="#3AD38C"/>
<path d="M69.6937 80.4807C69.9009 80.163 70.1599 79.9144 70.4706 79.7348C70.7814 79.5483 71.1267 79.4551 71.5066 79.4551V81.3301H71.0197C70.5777 81.3301 70.2462 81.4268 70.0252 81.6202C69.8042 81.8066 69.6937 82.1381 69.6937 82.6146V85.2977H67.9223V79.5173H69.6937V80.4807Z" fill="#3AD38C"/>
</svg>
