<svg width="72" height="73" viewBox="0 0 72 73" fill="none" xmlns="http://www.w3.org/2000/svg">
<path d="M39.0853 37.9116C43.5129 38.4796 45.9954 38.7981 50.4231 39.3661L46.3434 44.2491L39.0853 37.9116Z" fill="#001A23" fill-opacity="0.24"/>
<path d="M21 3.20964C21 1.43701 22.4391 0 24.2143 0H47.7857C49.5609 0 51 1.43701 51 3.20964V37.5007C51 39.2733 49.5609 40.7103 47.7857 40.7103H24.2143C22.4391 40.7103 21 39.2733 21 37.5007V3.20964Z" fill="#001A23"/>
<path d="M21 4.06637C21 1.99225 22.9406 0.462749 24.9609 0.944515L44.3015 5.55651C45.7485 5.90154 46.7692 7.19291 46.7692 8.67836V42.7889C46.7692 44.863 44.8287 46.3925 42.8083 45.9108L23.4677 41.2988C22.0208 40.9537 21 39.6624 21 38.1769V4.06637Z" fill="white"/>
<path fill-rule="evenodd" clip-rule="evenodd" d="M43.8038 7.63774L24.4632 3.02575C23.7897 2.86517 23.1429 3.375 23.1429 4.06637V38.1769C23.1429 38.6721 23.4831 39.1025 23.9654 39.2175L43.3061 43.8295C43.9795 43.9901 44.6264 43.4803 44.6264 42.7889V8.67836C44.6264 8.18321 44.2861 7.75276 43.8038 7.63774ZM24.9609 0.944515C22.9406 0.462749 21 1.99225 21 4.06637V38.1769C21 39.6624 22.0208 40.9537 23.4677 41.2988L42.8083 45.9108C44.8287 46.3925 46.7692 44.863 46.7692 42.7889V8.67836C46.7692 7.19291 45.7485 5.90154 44.3015 5.55651L24.9609 0.944515Z" fill="#001A23"/>
<path d="M37.8769 22.0647L28.9785 18.7455C28.9151 18.7216 28.8461 18.7166 28.7799 18.7308C28.7136 18.745 28.6528 18.778 28.6047 18.8258C28.5566 18.8736 28.5232 18.9342 28.5085 19.0004C28.4937 19.0666 28.4983 19.1357 28.5216 19.1994L31.8549 28.1217C31.8808 28.1908 31.9275 28.2501 31.9887 28.2913C32.0498 28.3325 32.1223 28.3537 32.196 28.3517C32.2697 28.3497 32.3409 28.3248 32.3998 28.2804C32.4587 28.236 32.5022 28.1743 32.5244 28.1039L33.4773 25.001L36.7079 28.1571C36.7743 28.2232 36.8641 28.2603 36.9577 28.2603C37.0512 28.2603 37.141 28.2232 37.2074 28.1571L38.0398 27.3238C38.1058 27.2573 38.1429 27.1675 38.1429 27.0738C38.1429 26.9801 38.1058 26.8902 38.0398 26.8238L34.8199 23.6818L37.8769 22.735C37.9465 22.7108 38.0069 22.6656 38.0496 22.6055C38.0923 22.5455 38.1153 22.4736 38.1153 22.3998C38.1153 22.3261 38.0923 22.2542 38.0496 22.1941C38.0069 22.1341 37.9465 22.0888 37.8769 22.0647Z" fill="#3AD38C"/>
<path d="M2.21735 72.347C1.80767 72.347 1.43389 72.252 1.09601 72.0619C0.758124 71.8677 0.48993 71.5995 0.291424 71.2574C0.0971412 70.911 0 70.5225 0 70.0917C0 69.6609 0.0971412 69.2744 0.291424 68.9323C0.48993 68.586 0.758124 68.3178 1.09601 68.1277C1.43389 67.9334 1.80767 67.8363 2.21735 67.8363C2.63126 67.8363 3.00715 67.9334 3.34504 68.1277C3.68292 68.3178 3.949 68.5839 4.14328 68.926C4.33757 69.2681 4.43471 69.6566 4.43471 70.0917C4.43471 70.5267 4.33757 70.9153 4.14328 71.2574C3.949 71.5995 3.68292 71.8677 3.34504 72.0619C3.00715 72.252 2.63126 72.347 2.21735 72.347ZM2.21735 71.8465C2.52567 71.8465 2.80231 71.7747 3.04728 71.6311C3.29647 71.4875 3.49075 71.2827 3.63013 71.0166C3.77373 70.7505 3.84553 70.4422 3.84553 70.0917C3.84553 69.7369 3.77373 69.4286 3.63013 69.1667C3.49075 68.9006 3.29858 68.6958 3.05361 68.5522C2.80865 68.4086 2.52989 68.3368 2.21735 68.3368C1.90481 68.3368 1.62606 68.4086 1.38109 68.5522C1.13613 68.6958 0.941847 68.9006 0.798247 69.1667C0.658871 69.4286 0.589183 69.7369 0.589183 70.0917C0.589183 70.4422 0.658871 70.7505 0.798247 71.0166C0.941847 71.2827 1.13613 71.4875 1.38109 71.6311C1.63028 71.7747 1.90904 71.8465 2.21735 71.8465Z" fill="#5C7E82"/>
<path d="M10.5681 72.3027H9.9916L7.67288 68.7866V72.3027H7.09637V67.8807H7.67288L9.9916 71.3904V67.8807H10.5681V72.3027Z" fill="#5C7E82"/>
<path d="M14.028 71.8339H15.5738V72.3027H13.4515V67.887H14.028V71.8339Z" fill="#5C7E82"/>
<path d="M18.6631 67.887V72.3027H18.0866V67.887H18.6631Z" fill="#5C7E82"/>
<path d="M25.018 72.3027H24.4415L22.1228 68.7866V72.3027H21.5463V67.8807H22.1228L24.4415 71.3904V67.8807H25.018V72.3027Z" fill="#5C7E82"/>
<path d="M28.4779 68.3558V69.8319H30.0871V70.3071H28.4779V71.8275H30.2771V72.3027H27.9014V67.8807H30.2771V68.3558H28.4779Z" fill="#5C7E82"/>
<path d="M38.9647 72.3027L37.913 70.4971H37.2162V72.3027H36.6396V67.887H38.0651C38.3987 67.887 38.6796 67.944 38.9077 68.058C39.14 68.1721 39.3131 68.3262 39.4272 68.5205C39.5412 68.7148 39.5982 68.9365 39.5982 69.1857C39.5982 69.4898 39.5095 69.758 39.3321 69.9903C39.159 70.2226 38.8971 70.3768 38.5466 70.4528L39.6552 72.3027H38.9647ZM37.2162 70.0347H38.0651C38.3776 70.0347 38.612 69.9586 38.7683 69.8066C38.9246 69.6503 39.0027 69.4434 39.0027 69.1857C39.0027 68.9239 38.9246 68.7211 38.7683 68.5775C38.6163 68.4339 38.3818 68.3621 38.0651 68.3621H37.2162V70.0347Z" fill="#5C7E82"/>
<path d="M44.3966 72.347C43.9869 72.347 43.6131 72.252 43.2752 72.0619C42.9373 71.8677 42.6691 71.5995 42.4706 71.2574C42.2764 70.911 42.1792 70.5225 42.1792 70.0917C42.1792 69.6609 42.2764 69.2744 42.4706 68.9323C42.6691 68.586 42.9373 68.3178 43.2752 68.1277C43.6131 67.9334 43.9869 67.8363 44.3966 67.8363C44.8105 67.8363 45.1864 67.9334 45.5243 68.1277C45.8621 68.3178 46.1282 68.5839 46.3225 68.926C46.5168 69.2681 46.6139 69.6566 46.6139 70.0917C46.6139 70.5267 46.5168 70.9153 46.3225 71.2574C46.1282 71.5995 45.8621 71.8677 45.5243 72.0619C45.1864 72.252 44.8105 72.347 44.3966 72.347ZM44.3966 71.8465C44.7049 71.8465 44.9815 71.7747 45.2265 71.6311C45.4757 71.4875 45.67 71.2827 45.8093 71.0166C45.9529 70.7505 46.0247 70.4422 46.0247 70.0917C46.0247 69.7369 45.9529 69.4286 45.8093 69.1667C45.67 68.9006 45.4778 68.6958 45.2328 68.5522C44.9879 68.4086 44.7091 68.3368 44.3966 68.3368C44.084 68.3368 43.8053 68.4086 43.5603 68.5522C43.3153 68.6958 43.1211 68.9006 42.9775 69.1667C42.8381 69.4286 42.7684 69.7369 42.7684 70.0917C42.7684 70.4422 42.8381 70.7505 42.9775 71.0166C43.1211 71.2827 43.3153 71.4875 43.5603 71.6311C43.8095 71.7747 44.0882 71.8465 44.3966 71.8465Z" fill="#5C7E82"/>
<path d="M51.2775 72.347C50.8679 72.347 50.4941 72.252 50.1562 72.0619C49.8183 71.8677 49.5501 71.5995 49.3516 71.2574C49.1573 70.911 49.0602 70.5225 49.0602 70.0917C49.0602 69.6609 49.1573 69.2744 49.3516 68.9323C49.5501 68.586 49.8183 68.3178 50.1562 68.1277C50.4941 67.9334 50.8679 67.8363 51.2775 67.8363C51.6914 67.8363 52.0673 67.9334 52.4052 68.1277C52.7431 68.3178 53.0092 68.5839 53.2035 68.926C53.3978 69.2681 53.4949 69.6566 53.4949 70.0917C53.4949 70.5267 53.3978 70.9153 53.2035 71.2574C53.0092 71.5995 52.7431 71.8677 52.4052 72.0619C52.0673 72.252 51.6914 72.347 51.2775 72.347ZM51.2775 71.8465C51.5859 71.8465 51.8625 71.7747 52.1075 71.6311C52.3567 71.4875 52.5509 71.2827 52.6903 71.0166C52.8339 70.7505 52.9057 70.4422 52.9057 70.0917C52.9057 69.7369 52.8339 69.4286 52.6903 69.1667C52.5509 68.9006 52.3588 68.6958 52.1138 68.5522C51.8688 68.4086 51.5901 68.3368 51.2775 68.3368C50.965 68.3368 50.6862 68.4086 50.4413 68.5522C50.1963 68.6958 50.002 68.9006 49.8584 69.1667C49.7191 69.4286 49.6494 69.7369 49.6494 70.0917C49.6494 70.4422 49.7191 70.7505 49.8584 71.0166C50.002 71.2827 50.1963 71.4875 50.4413 71.6311C50.6905 71.7747 50.9692 71.8465 51.2775 71.8465Z" fill="#5C7E82"/>
<path d="M60.6356 67.9187V72.3027H60.0591V69.0337L58.602 72.3027H58.1965L56.7331 69.0273V72.3027H56.1566V67.9187H56.7774L58.3993 71.5425L60.0211 67.9187H60.6356Z" fill="#5C7E82"/>
<path d="M1.9419 57.0599C2.10028 56.8129 2.31885 56.6133 2.5976 56.4613C2.87635 56.3092 3.20262 56.2332 3.5764 56.2332C4.01354 56.2332 4.4095 56.3441 4.76427 56.5658C5.11905 56.7875 5.3978 57.1043 5.60053 57.5161C5.8096 57.9279 5.91413 58.4062 5.91413 58.951C5.91413 59.4959 5.8096 59.9774 5.60053 60.3955C5.3978 60.8073 5.11905 61.1272 4.76427 61.3553C4.4095 61.577 4.01354 61.6879 3.5764 61.6879C3.20896 61.6879 2.88269 61.6119 2.5976 61.4598C2.31885 61.3078 2.10028 61.1114 1.9419 60.8706V64.1396H0.316895V56.3092H1.9419V57.0599ZM4.26062 58.951C4.26062 58.5456 4.14658 58.2288 3.91851 58.0007C3.69678 57.7663 3.42119 57.6491 3.09175 57.6491C2.76865 57.6491 2.49307 57.7663 2.265 58.0007C2.04326 58.2351 1.9324 58.5551 1.9324 58.9605C1.9324 59.366 2.04326 59.6859 2.265 59.9203C2.49307 60.1547 2.76865 60.2719 3.09175 60.2719C3.41485 60.2719 3.69044 60.1547 3.91851 59.9203C4.14658 59.6796 4.26062 59.3565 4.26062 58.951Z" fill="black"/>
<path d="M8.39165 54.5797V61.6119H6.76665V54.5797H8.39165Z" fill="black"/>
<path d="M9.24617 58.951C9.24617 58.4062 9.34754 57.9279 9.55027 57.5161C9.75933 57.1043 10.0413 56.7875 10.396 56.5658C10.7508 56.3441 11.1468 56.2332 11.5839 56.2332C11.9577 56.2332 12.2839 56.3092 12.5627 56.4613C12.8478 56.6133 13.0664 56.8129 13.2184 57.0599V56.3092H14.8434V61.6119H13.2184V60.8611C13.06 61.1082 12.8383 61.3078 12.5532 61.4598C12.2744 61.6119 11.9482 61.6879 11.5744 61.6879C11.1436 61.6879 10.7508 61.577 10.396 61.3553C10.0413 61.1272 9.75933 60.8073 9.55027 60.3955C9.34754 59.9774 9.24617 59.4959 9.24617 58.951ZM13.2184 58.9605C13.2184 58.5551 13.1044 58.2351 12.8763 58.0007C12.6546 57.7663 12.3821 57.6491 12.059 57.6491C11.7359 57.6491 11.4604 57.7663 11.2323 58.0007C11.0106 58.2288 10.8997 58.5456 10.8997 58.951C10.8997 59.3565 11.0106 59.6796 11.2323 59.9203C11.4604 60.1547 11.7359 60.2719 12.059 60.2719C12.3821 60.2719 12.6546 60.1547 12.8763 59.9203C13.1044 59.6859 13.2184 59.366 13.2184 58.9605Z" fill="black"/>
<path d="M19.25 56.2522C19.8709 56.2522 20.365 56.4549 20.7325 56.8604C21.1063 57.2595 21.2932 57.8107 21.2932 58.5139V61.6119H19.6777V58.7325C19.6777 58.3777 19.5858 58.1021 19.4021 57.9057C19.2183 57.7093 18.9713 57.6111 18.6608 57.6111C18.3504 57.6111 18.1033 57.7093 17.9196 57.9057C17.7359 58.1021 17.644 58.3777 17.644 58.7325V61.6119H16.019V56.3092H17.644V57.0124C17.8087 56.778 18.0305 56.5943 18.3092 56.4613C18.588 56.3219 18.9016 56.2522 19.25 56.2522Z" fill="black"/>
<path d="M25.6534 56.2522C26.2742 56.2522 26.7684 56.4549 27.1358 56.8604C27.5096 57.2595 27.6965 57.8107 27.6965 58.5139V61.6119H26.081V58.7325C26.081 58.3777 25.9891 58.1021 25.8054 57.9057C25.6217 57.7093 25.3746 57.6111 25.0642 57.6111C24.7538 57.6111 24.5067 57.7093 24.323 57.9057C24.1392 58.1021 24.0474 58.3777 24.0474 58.7325V61.6119H22.4224V56.3092H24.0474V57.0124C24.2121 56.778 24.4338 56.5943 24.7126 56.4613C24.9913 56.3219 25.3049 56.2522 25.6534 56.2522Z" fill="black"/>
<path d="M29.643 55.758C29.3579 55.758 29.1235 55.6757 28.9398 55.511C28.7624 55.3399 28.6737 55.1309 28.6737 54.8838C28.6737 54.6304 28.7624 54.4213 28.9398 54.2566C29.1235 54.0855 29.3579 54 29.643 54C29.9217 54 30.1498 54.0855 30.3272 54.2566C30.5109 54.4213 30.6028 54.6304 30.6028 54.8838C30.6028 55.1309 30.5109 55.3399 30.3272 55.511C30.1498 55.6757 29.9217 55.758 29.643 55.758ZM30.4507 56.3092V61.6119H28.8257V56.3092H30.4507Z" fill="black"/>
<path d="M34.8594 56.2522C35.4802 56.2522 35.9744 56.4549 36.3418 56.8604C36.7156 57.2595 36.9025 57.8107 36.9025 58.5139V61.6119H35.287V58.7325C35.287 58.3777 35.1951 58.1021 35.0114 57.9057C34.8277 57.7093 34.5806 57.6111 34.2702 57.6111C33.9597 57.6111 33.7127 57.7093 33.5289 57.9057C33.3452 58.1021 33.2534 58.3777 33.2534 58.7325V61.6119H31.6284V56.3092H33.2534V57.0124C33.4181 56.778 33.6398 56.5943 33.9186 56.4613C34.1973 56.3219 34.5109 56.2522 34.8594 56.2522Z" fill="black"/>
<path d="M40.0463 56.2332C40.4201 56.2332 40.7464 56.3092 41.0251 56.4613C41.3102 56.6133 41.5288 56.8129 41.6808 57.0599V56.3092H43.3058V61.6024C43.3058 62.0902 43.2076 62.5305 43.0112 62.9233C42.8212 63.3224 42.5266 63.6392 42.1275 63.8736C41.7347 64.108 41.2437 64.2252 40.6545 64.2252C39.8689 64.2252 39.2322 64.0383 38.7444 63.6645C38.2566 63.297 37.9779 62.7966 37.9082 62.163H39.5142C39.5648 62.3658 39.6852 62.5241 39.8753 62.6382C40.0653 62.7585 40.2997 62.8187 40.5785 62.8187C40.9143 62.8187 41.1803 62.7205 41.3767 62.5241C41.5795 62.3341 41.6808 62.0268 41.6808 61.6024V60.8516C41.5225 61.0987 41.3039 61.3014 41.0251 61.4598C40.7464 61.6119 40.4201 61.6879 40.0463 61.6879C39.6092 61.6879 39.2132 61.577 38.8585 61.3553C38.5037 61.1272 38.2218 60.8073 38.0127 60.3955C37.81 59.9774 37.7086 59.4959 37.7086 58.951C37.7086 58.4062 37.81 57.9279 38.0127 57.5161C38.2218 57.1043 38.5037 56.7875 38.8585 56.5658C39.2132 56.3441 39.6092 56.2332 40.0463 56.2332ZM41.6808 58.9605C41.6808 58.5551 41.5668 58.2351 41.3387 58.0007C41.117 57.7663 40.8446 57.6491 40.5215 57.6491C40.1984 57.6491 39.9228 57.7663 39.6947 58.0007C39.473 58.2288 39.3621 58.5456 39.3621 58.951C39.3621 59.3565 39.473 59.6796 39.6947 59.9203C39.9228 60.1547 40.1984 60.2719 40.5215 60.2719C40.8446 60.2719 41.117 60.1547 41.3387 59.9203C41.5668 59.6859 41.6808 59.366 41.6808 58.9605Z" fill="black"/>
<path d="M46.1065 57.0599C46.2648 56.8129 46.4834 56.6133 46.7622 56.4613C47.0409 56.3092 47.3672 56.2332 47.741 56.2332C48.1781 56.2332 48.5741 56.3441 48.9288 56.5658C49.2836 56.7875 49.5624 57.1043 49.7651 57.5161C49.9742 57.9279 50.0787 58.4062 50.0787 58.951C50.0787 59.4959 49.9742 59.9774 49.7651 60.3955C49.5624 60.8073 49.2836 61.1272 48.9288 61.3553C48.5741 61.577 48.1781 61.6879 47.741 61.6879C47.3735 61.6879 47.0473 61.6119 46.7622 61.4598C46.4834 61.3078 46.2648 61.1114 46.1065 60.8706V64.1396H44.4815V56.3092H46.1065V57.0599ZM48.4252 58.951C48.4252 58.5456 48.3111 58.2288 48.0831 58.0007C47.8613 57.7663 47.5858 57.6491 47.2563 57.6491C46.9332 57.6491 46.6576 57.7663 46.4296 58.0007C46.2078 58.2351 46.097 58.5551 46.097 58.9605C46.097 59.366 46.2078 59.6859 46.4296 59.9203C46.6576 60.1547 46.9332 60.2719 47.2563 60.2719C47.5794 60.2719 47.855 60.1547 48.0831 59.9203C48.3111 59.6796 48.4252 59.3565 48.4252 58.951Z" fill="#3AD38C"/>
<path d="M53.345 61.6879C52.8255 61.6879 52.3567 61.577 51.9385 61.3553C51.5267 61.1335 51.2005 60.8168 50.9597 60.405C50.7253 59.9932 50.6081 59.5117 50.6081 58.9605C50.6081 58.4157 50.7285 57.9374 50.9692 57.5256C51.21 57.1075 51.5394 56.7875 51.9575 56.5658C52.3757 56.3441 52.8445 56.2332 53.364 56.2332C53.8835 56.2332 54.3523 56.3441 54.7704 56.5658C55.1885 56.7875 55.518 57.1075 55.7587 57.5256C55.9994 57.9374 56.1198 58.4157 56.1198 58.9605C56.1198 59.5054 55.9963 59.9869 55.7492 60.405C55.5085 60.8168 55.1759 61.1335 54.7514 61.3553C54.3333 61.577 53.8644 61.6879 53.345 61.6879ZM53.345 60.2814C53.6554 60.2814 53.9183 60.1674 54.1337 59.9393C54.3554 59.7113 54.4663 59.385 54.4663 58.9605C54.4663 58.5361 54.3586 58.2098 54.1432 57.9817C53.9341 57.7537 53.6744 57.6396 53.364 57.6396C53.0472 57.6396 52.7843 57.7537 52.5752 57.9817C52.3662 58.2035 52.2616 58.5297 52.2616 58.9605C52.2616 59.385 52.363 59.7113 52.5657 59.9393C52.7748 60.1674 53.0345 60.2814 53.345 60.2814Z" fill="#3AD38C"/>
<path d="M60.2224 61.6119L58.6069 59.3882V61.6119H56.9819V54.5797H58.6069V58.4664L60.2129 56.3092H62.218L60.0134 58.97L62.237 61.6119H60.2224Z" fill="#3AD38C"/>
<path d="M67.8548 58.875C67.8548 59.0271 67.8453 59.1854 67.8263 59.3502H64.1487C64.174 59.6796 64.2786 59.933 64.4623 60.1104C64.6523 60.2814 64.8836 60.367 65.156 60.367C65.5615 60.367 65.8434 60.1959 66.0018 59.8538H67.7313C67.6426 60.2023 67.4811 60.5159 67.2466 60.7946C67.0186 61.0734 66.7303 61.2919 66.3819 61.4503C66.0334 61.6087 65.6438 61.6879 65.213 61.6879C64.6935 61.6879 64.231 61.577 63.8256 61.3553C63.4201 61.1335 63.1034 60.8168 62.8753 60.405C62.6472 59.9932 62.5332 59.5117 62.5332 58.9605C62.5332 58.4094 62.6441 57.9279 62.8658 57.5161C63.0939 57.1043 63.4106 56.7875 63.8161 56.5658C64.2215 56.3441 64.6872 56.2332 65.213 56.2332C65.7262 56.2332 66.1823 56.3409 66.5814 56.5563C66.9806 56.7717 67.291 57.079 67.5127 57.4781C67.7408 57.8772 67.8548 58.3428 67.8548 58.875ZM66.1918 58.4474C66.1918 58.1686 66.0968 57.9469 65.9067 57.7822C65.7167 57.6175 65.4791 57.5351 65.194 57.5351C64.9216 57.5351 64.6904 57.6143 64.5003 57.7727C64.3166 57.9311 64.2025 58.156 64.1582 58.4474H66.1918Z" fill="#3AD38C"/>
<path d="M70.3371 57.193C70.5272 56.9016 70.7647 56.6735 71.0498 56.5088C71.3349 56.3377 71.6517 56.2522 72.0001 56.2522V57.9722H71.5535C71.148 57.9722 70.8439 58.0609 70.6412 58.2383C70.4385 58.4094 70.3371 58.7135 70.3371 59.1506V61.6119H68.7121V56.3092H70.3371V57.193Z" fill="#3AD38C"/>
</svg>
